<svg width="50" height="51" viewBox="0 0 50 51" fill="none" xmlns="http://www.w3.org/2000/svg">
<path d="M14.5833 35.9168H18.9583L31.4583 23.521L26.9792 19.0418L14.5833 31.4377V35.9168ZM32.9167 22.0627L35.1042 19.771C35.3125 19.5627 35.4167 19.3196 35.4167 19.0418C35.4167 18.7641 35.3125 18.521 35.1042 18.3127L32.1875 15.396C31.9792 15.1877 31.7361 15.0835 31.4583 15.0835C31.1806 15.0835 30.9375 15.1877 30.7292 15.396L28.4375 17.5835L32.9167 22.0627ZM10.4167 44.2502C9.27083 44.2502 8.29028 43.8425 7.475 43.0272C6.65972 42.212 6.25139 41.2307 6.25 40.0835V10.9168C6.25 9.771 6.65833 8.79044 7.475 7.97516C8.29167 7.15989 9.27222 6.75155 10.4167 6.75016H19.1667C19.6181 5.50016 20.3736 4.49322 21.4333 3.72933C22.4931 2.96544 23.6819 2.5835 25 2.5835C26.3181 2.5835 27.5076 2.96544 28.5688 3.72933C29.6299 4.49322 30.3847 5.50016 30.8333 6.75016H39.5833C40.7292 6.75016 41.7104 7.1585 42.5271 7.97516C43.3438 8.79183 43.7514 9.77239 43.75 10.9168V40.0835C43.75 41.2293 43.3424 42.2106 42.5271 43.0272C41.7118 43.8439 40.7306 44.2516 39.5833 44.2502H10.4167ZM25 9.35433C25.4514 9.35433 25.825 9.20641 26.1208 8.91058C26.4167 8.61475 26.5639 8.24183 26.5625 7.79183C26.5611 7.34183 26.4132 6.96891 26.1187 6.67308C25.8243 6.37725 25.4514 6.22933 25 6.22933C24.5486 6.22933 24.1757 6.37725 23.8813 6.67308C23.5868 6.96891 23.4389 7.34183 23.4375 7.79183C23.4361 8.24183 23.584 8.61544 23.8813 8.91266C24.1785 9.20989 24.5514 9.35711 25 9.35433Z" fill="#595880"/>
</svg>
