<svg width="50" height="50" viewBox="0 0 50 50" fill="none" xmlns="http://www.w3.org/2000/svg">
<path d="M33.5938 24.2188C33.5938 24.8404 33.3468 25.4365 32.9073 25.876C32.4677 26.3156 31.8716 26.5625 31.25 26.5625H18.75C18.1284 26.5625 17.5323 26.3156 17.0927 25.876C16.6532 25.4365 16.4062 24.8404 16.4062 24.2188C16.4062 23.5971 16.6532 23.001 17.0927 22.5615C17.5323 22.1219 18.1284 21.875 18.75 21.875H31.25C31.8716 21.875 32.4677 22.1219 32.9073 22.5615C33.3468 23.001 33.5938 23.5971 33.5938 24.2188ZM31.25 29.6875H18.75C18.1284 29.6875 17.5323 29.9344 17.0927 30.374C16.6532 30.8135 16.4062 31.4096 16.4062 32.0312C16.4062 32.6529 16.6532 33.249 17.0927 33.6885C17.5323 34.1281 18.1284 34.375 18.75 34.375H31.25C31.8716 34.375 32.4677 34.1281 32.9073 33.6885C33.3468 33.249 33.5938 32.6529 33.5938 32.0312C33.5938 31.4096 33.3468 30.8135 32.9073 30.374C32.4677 29.9344 31.8716 29.6875 31.25 29.6875ZM42.9688 7.8125V39.0625C42.9688 40.9273 42.228 42.7157 40.9093 44.0343C39.5907 45.353 37.8023 46.0938 35.9375 46.0938H14.0625C12.1977 46.0938 10.4093 45.353 9.09066 44.0343C7.77204 42.7157 7.03125 40.9273 7.03125 39.0625V7.8125C7.03125 7.1909 7.27818 6.59476 7.71772 6.15522C8.15726 5.71568 8.7534 5.46875 9.375 5.46875H14.0625V4.6875C14.0625 4.0659 14.3094 3.46976 14.749 3.03022C15.1885 2.59068 15.7846 2.34375 16.4062 2.34375C17.0279 2.34375 17.624 2.59068 18.0635 3.03022C18.5031 3.46976 18.75 4.0659 18.75 4.6875V5.46875H22.6562V4.6875C22.6562 4.0659 22.9032 3.46976 23.3427 3.03022C23.7823 2.59068 24.3784 2.34375 25 2.34375C25.6216 2.34375 26.2177 2.59068 26.6573 3.03022C27.0968 3.46976 27.3438 4.0659 27.3438 4.6875V5.46875H31.25V4.6875C31.25 4.0659 31.4969 3.46976 31.9365 3.03022C32.376 2.59068 32.9721 2.34375 33.5938 2.34375C34.2154 2.34375 34.8115 2.59068 35.251 3.03022C35.6906 3.46976 35.9375 4.0659 35.9375 4.6875V5.46875H40.625C41.2466 5.46875 41.8427 5.71568 42.2823 6.15522C42.7218 6.59476 42.9688 7.1909 42.9688 7.8125ZM38.2812 10.1562H35.9375V10.9375C35.9375 11.5591 35.6906 12.1552 35.251 12.5948C34.8115 13.0343 34.2154 13.2812 33.5938 13.2812C32.9721 13.2812 32.376 13.0343 31.9365 12.5948C31.4969 12.1552 31.25 11.5591 31.25 10.9375V10.1562H27.3438V10.9375C27.3438 11.5591 27.0968 12.1552 26.6573 12.5948C26.2177 13.0343 25.6216 13.2812 25 13.2812C24.3784 13.2812 23.7823 13.0343 23.3427 12.5948C22.9032 12.1552 22.6562 11.5591 22.6562 10.9375V10.1562H18.75V10.9375C18.75 11.5591 18.5031 12.1552 18.0635 12.5948C17.624 13.0343 17.0279 13.2812 16.4062 13.2812C15.7846 13.2812 15.1885 13.0343 14.749 12.5948C14.3094 12.1552 14.0625 11.5591 14.0625 10.9375V10.1562H11.7188V39.0625C11.7188 39.6841 11.9657 40.2802 12.4052 40.7198C12.8448 41.1593 13.4409 41.4062 14.0625 41.4062H35.9375C36.5591 41.4062 37.1552 41.1593 37.5948 40.7198C38.0343 40.2802 38.2812 39.6841 38.2812 39.0625V10.1562Z" fill="#595880"/>
</svg>
