<svg width="50" height="50" viewBox="0 0 50 50" fill="none" xmlns="http://www.w3.org/2000/svg">
<path d="M22.918 37.4998H27.0846V33.3332H22.918V37.4998ZM25.0013 4.1665C22.2654 4.1665 19.5563 4.70537 17.0287 5.75235C14.5011 6.79932 12.2045 8.33389 10.2699 10.2684C6.3629 14.1755 4.16797 19.4745 4.16797 24.9998C4.16797 30.5252 6.3629 35.8242 10.2699 39.7312C12.2045 41.6658 14.5011 43.2004 17.0287 44.2473C19.5563 45.2943 22.2654 45.8332 25.0013 45.8332C30.5266 45.8332 35.8257 43.6382 39.7327 39.7312C43.6397 35.8242 45.8346 30.5252 45.8346 24.9998C45.8346 22.264 45.2958 19.5549 44.2488 17.0273C43.2018 14.4996 41.6673 12.203 39.7327 10.2684C37.7981 8.33389 35.5015 6.79932 32.9739 5.75235C30.4463 4.70537 27.7372 4.1665 25.0013 4.1665ZM25.0013 41.6665C15.8138 41.6665 8.33464 34.1873 8.33464 24.9998C8.33464 15.8123 15.8138 8.33317 25.0013 8.33317C34.1888 8.33317 41.668 15.8123 41.668 24.9998C41.668 34.1873 34.1888 41.6665 25.0013 41.6665ZM25.0013 12.4998C22.7912 12.4998 20.6715 13.3778 19.1087 14.9406C17.5459 16.5034 16.668 18.623 16.668 20.8332H20.8346C20.8346 19.7281 21.2736 18.6683 22.055 17.8869C22.8364 17.1055 23.8962 16.6665 25.0013 16.6665C26.1064 16.6665 27.1662 17.1055 27.9476 17.8869C28.729 18.6683 29.168 19.7281 29.168 20.8332C29.168 24.9998 22.918 24.479 22.918 31.2498H27.0846C27.0846 26.5623 33.3346 26.0415 33.3346 20.8332C33.3346 18.623 32.4567 16.5034 30.8939 14.9406C29.3311 13.3778 27.2114 12.4998 25.0013 12.4998Z" fill="#595880"/>
</svg>
