<svg width="52" height="50" viewBox="0 0 52 50" fill="none" xmlns="http://www.w3.org/2000/svg">
<path fill-rule="evenodd" clip-rule="evenodd" d="M12.9987 8.33301H38.9987C41.2972 8.33301 43.5016 9.21098 45.127 10.7738C46.7523 12.3366 47.6654 14.4562 47.6654 16.6663V37.4997C47.6654 39.7098 46.7523 41.8294 45.127 43.3922C43.5016 44.955 41.2972 45.833 38.9987 45.833H12.9987C10.7002 45.833 8.49575 44.955 6.87044 43.3922C5.24512 41.8294 4.33203 39.7098 4.33203 37.4997V16.6663C4.33203 14.4562 5.24512 12.3366 6.87044 10.7738C8.49575 9.21098 10.7002 8.33301 12.9987 8.33301ZM12.9987 12.4997C11.8494 12.4997 10.7472 12.9387 9.93457 13.7201C9.12191 14.5015 8.66536 15.5613 8.66536 16.6663V37.4997C8.66536 38.6047 9.12191 39.6645 9.93457 40.4459C10.7472 41.2274 11.8494 41.6663 12.9987 41.6663H38.9987C40.148 41.6663 41.2502 41.2274 42.0628 40.4459C42.8755 39.6645 43.332 38.6047 43.332 37.4997V16.6663C43.332 15.5613 42.8755 14.5015 42.0628 13.7201C41.2502 12.9387 40.148 12.4997 38.9987 12.4997H12.9987Z" fill="#595880"/>
<path fill-rule="evenodd" clip-rule="evenodd" d="M6.5 20.8332C6.5 20.2806 6.72827 19.7507 7.1346 19.36C7.54093 18.9693 8.09203 18.7498 8.66667 18.7498H43.3333C43.908 18.7498 44.4591 18.9693 44.8654 19.36C45.2717 19.7507 45.5 20.2806 45.5 20.8332C45.5 21.3857 45.2717 21.9156 44.8654 22.3063C44.4591 22.697 43.908 22.9165 43.3333 22.9165H8.66667C8.09203 22.9165 7.54093 22.697 7.1346 22.3063C6.72827 21.9156 6.5 21.3857 6.5 20.8332ZM17.3333 4.1665C17.908 4.1665 18.4591 4.386 18.8654 4.7767C19.2717 5.1674 19.5 5.6973 19.5 6.24984V14.5832C19.5 15.1357 19.2717 15.6656 18.8654 16.0563C18.4591 16.447 17.908 16.6665 17.3333 16.6665C16.7587 16.6665 16.2076 16.447 15.8013 16.0563C15.3949 15.6656 15.1667 15.1357 15.1667 14.5832V6.24984C15.1667 5.6973 15.3949 5.1674 15.8013 4.7767C16.2076 4.386 16.7587 4.1665 17.3333 4.1665ZM34.6667 4.1665C35.2413 4.1665 35.7924 4.386 36.1987 4.7767C36.6051 5.1674 36.8333 5.6973 36.8333 6.24984V14.5832C36.8333 15.1357 36.6051 15.6656 36.1987 16.0563C35.7924 16.447 35.2413 16.6665 34.6667 16.6665C34.092 16.6665 33.5409 16.447 33.1346 16.0563C32.7283 15.6656 32.5 15.1357 32.5 14.5832V6.24984C32.5 5.6973 32.7283 5.1674 33.1346 4.7767C33.5409 4.386 34.092 4.1665 34.6667 4.1665Z" fill="#595880"/>
<path d="M17.3333 27.0833C17.3333 27.6359 17.1051 28.1658 16.6987 28.5565C16.2924 28.9472 15.7413 29.1667 15.1667 29.1667C14.592 29.1667 14.0409 28.9472 13.6346 28.5565C13.2283 28.1658 13 27.6359 13 27.0833C13 26.5308 13.2283 26.0009 13.6346 25.6102C14.0409 25.2195 14.592 25 15.1667 25C15.7413 25 16.2924 25.2195 16.6987 25.6102C17.1051 26.0009 17.3333 26.5308 17.3333 27.0833ZM17.3333 35.4167C17.3333 35.9692 17.1051 36.4991 16.6987 36.8898C16.2924 37.2805 15.7413 37.5 15.1667 37.5C14.592 37.5 14.0409 37.2805 13.6346 36.8898C13.2283 36.4991 13 35.9692 13 35.4167C13 34.8641 13.2283 34.3342 13.6346 33.9435C14.0409 33.5528 14.592 33.3333 15.1667 33.3333C15.7413 33.3333 16.2924 33.5528 16.6987 33.9435C17.1051 34.3342 17.3333 34.8641 17.3333 35.4167ZM28.1667 27.0833C28.1667 27.6359 27.9384 28.1658 27.5321 28.5565C27.1257 28.9472 26.5746 29.1667 26 29.1667C25.4254 29.1667 24.8743 28.9472 24.4679 28.5565C24.0616 28.1658 23.8333 27.6359 23.8333 27.0833C23.8333 26.5308 24.0616 26.0009 24.4679 25.6102C24.8743 25.2195 25.4254 25 26 25C26.5746 25 27.1257 25.2195 27.5321 25.6102C27.9384 26.0009 28.1667 26.5308 28.1667 27.0833ZM28.1667 35.4167C28.1667 35.9692 27.9384 36.4991 27.5321 36.8898C27.1257 37.2805 26.5746 37.5 26 37.5C25.4254 37.5 24.8743 37.2805 24.4679 36.8898C24.0616 36.4991 23.8333 35.9692 23.8333 35.4167C23.8333 34.8641 24.0616 34.3342 24.4679 33.9435C24.8743 33.5528 25.4254 33.3333 26 33.3333C26.5746 33.3333 27.1257 33.5528 27.5321 33.9435C27.9384 34.3342 28.1667 34.8641 28.1667 35.4167ZM39 27.0833C39 27.6359 38.7717 28.1658 38.3654 28.5565C37.9591 28.9472 37.408 29.1667 36.8333 29.1667C36.2587 29.1667 35.7076 28.9472 35.3013 28.5565C34.8949 28.1658 34.6667 27.6359 34.6667 27.0833C34.6667 26.5308 34.8949 26.0009 35.3013 25.6102C35.7076 25.2195 36.2587 25 36.8333 25C37.408 25 37.9591 25.2195 38.3654 25.6102C38.7717 26.0009 39 26.5308 39 27.0833ZM39 35.4167C39 35.9692 38.7717 36.4991 38.3654 36.8898C37.9591 37.2805 37.408 37.5 36.8333 37.5C36.2587 37.5 35.7076 37.2805 35.3013 36.8898C34.8949 36.4991 34.6667 35.9692 34.6667 35.4167C34.6667 34.8641 34.8949 34.3342 35.3013 33.9435C35.7076 33.5528 36.2587 33.3333 36.8333 33.3333C37.408 33.3333 37.9591 33.5528 38.3654 33.9435C38.7717 34.3342 39 34.8641 39 35.4167Z" fill="#595880"/>
</svg>
