<svg width="50" height="50" viewBox="0 0 50 50" fill="none" xmlns="http://www.w3.org/2000/svg">
<path fill-rule="evenodd" clip-rule="evenodd" d="M29.2391 5.85226C30.01 5.29809 31.0933 5.03976 32.1579 5.42934C34.421 6.25885 36.523 7.47481 38.3704 9.02309C39.2391 9.75226 39.5579 10.8168 39.462 11.7585C39.3058 13.3273 39.5808 14.8418 40.337 16.146C41.0037 17.3064 42.0079 18.2231 43.2329 18.8689L43.7016 19.0981C44.5641 19.4877 45.3308 20.2981 45.5245 21.4168C45.9385 23.7878 45.9385 26.2126 45.5245 28.5835C45.3516 29.5918 44.712 30.3481 43.9558 30.7731L43.7016 30.9043C42.2641 31.5502 41.0891 32.5502 40.335 33.8543C39.5808 35.1606 39.3058 36.6731 39.462 38.2418C39.5558 39.1835 39.2391 40.2502 38.3704 40.9773C36.523 42.5255 34.421 43.7415 32.1579 44.571C31.6741 44.744 31.1554 44.796 30.647 44.7222C30.1385 44.6485 29.6559 44.4514 29.2412 44.1481C27.9579 43.2293 26.5058 42.7085 24.9995 42.7085C23.4933 42.7085 22.0412 43.2273 20.76 44.1481C20.3451 44.4517 19.862 44.6491 19.3532 44.7228C18.8444 44.7965 18.3252 44.7444 17.8412 44.571C15.5781 43.7415 13.4761 42.5255 11.6287 40.9773C11.2374 40.645 10.9333 40.222 10.743 39.7452C10.5527 39.2684 10.482 38.7523 10.537 38.2418C10.6933 36.6731 10.4162 35.1585 9.66204 33.8543C8.97644 32.6889 7.97159 31.7441 6.76621 31.1314L6.29746 30.9023C5.82724 30.6942 5.4152 30.374 5.09741 29.9698C4.77961 29.5655 4.56575 29.0896 4.47454 28.5835C4.06057 26.2126 4.06057 23.7878 4.47454 21.4168C4.64746 20.4085 5.28704 19.6523 6.04329 19.2273L6.29746 19.0981C7.73496 18.4502 8.90996 17.4523 9.66413 16.146C10.4162 14.8418 10.6933 13.3273 10.537 11.7585C10.482 11.2481 10.5527 10.732 10.743 10.2552C10.9333 9.77835 11.2374 9.35536 11.6287 9.02309C13.4761 7.47481 15.5781 6.25885 17.8412 5.42934C18.3249 5.25631 18.8437 5.20439 19.3521 5.27812C19.8606 5.35184 20.3432 5.54896 20.7579 5.85226C22.0391 6.77309 23.4912 7.29184 24.9995 7.29184C26.5079 7.29184 27.9579 6.77309 29.2391 5.85226ZM31.2329 9.53767C29.4287 10.7252 27.3016 11.4585 24.9995 11.4585C22.6975 11.4585 20.5704 10.7231 18.7662 9.53767C17.316 10.1233 15.9554 10.9102 14.7245 11.8752C14.8495 14.0273 14.4225 16.2356 13.2725 18.2293C12.1204 20.221 10.4225 21.6939 8.49538 22.6627C8.27613 24.2119 8.27613 25.7843 8.49538 27.3335C10.4225 28.3023 12.1204 29.7752 13.2725 31.771C14.4225 33.7606 14.8495 35.9689 14.7245 38.121C15.9553 39.0867 17.3159 39.8743 18.7662 40.4606C20.5704 39.2731 22.6975 38.5398 24.9995 38.5398C27.3016 38.5398 29.4287 39.2752 31.2329 40.4606C32.6831 39.8749 34.0437 39.088 35.2745 38.1231C35.1495 35.9689 35.5766 33.7606 36.7266 31.7689C37.8766 29.7752 39.5766 28.3023 41.5037 27.3314C41.7226 25.7836 41.7226 24.2126 41.5037 22.6648C39.5766 21.6939 37.8787 20.221 36.7266 18.2273C35.5766 16.2356 35.1495 14.0273 35.2745 11.8731C34.0437 10.9081 32.6831 10.1233 31.2329 9.53767ZM24.9995 16.6668C27.2097 16.6668 29.3293 17.5448 30.8921 19.1076C32.4549 20.6704 33.3329 22.79 33.3329 25.0002C33.3329 27.2103 32.4549 29.3299 30.8921 30.8927C29.3293 32.4555 27.2097 33.3335 24.9995 33.3335C22.7894 33.3335 20.6698 32.4555 19.107 30.8927C17.5442 29.3299 16.6662 27.2103 16.6662 25.0002C16.6662 22.79 17.5442 20.6704 19.107 19.1076C20.6698 17.5448 22.7894 16.6668 24.9995 16.6668ZM24.9995 20.8335C23.8945 20.8335 22.8347 21.2725 22.0533 22.0539C21.2719 22.8353 20.8329 23.8951 20.8329 25.0002C20.8329 26.1052 21.2719 27.1651 22.0533 27.9465C22.8347 28.7279 23.8945 29.1668 24.9995 29.1668C26.1046 29.1668 27.1644 28.7279 27.9458 27.9465C28.7272 27.1651 29.1662 26.1052 29.1662 25.0002C29.1662 23.8951 28.7272 22.8353 27.9458 22.0539C27.1644 21.2725 26.1046 20.8335 24.9995 20.8335Z" fill="#595880"/>
</svg>
