<svg width="50" height="50" viewBox="0 0 50 50" fill="none" xmlns="http://www.w3.org/2000/svg">
<path d="M8.33203 24.9998C8.33203 25.5524 8.55153 26.0823 8.94223 26.473C9.33293 26.8637 9.86283 27.0832 10.4154 27.0832H26.2279L21.4362 31.854C21.2409 32.0477 21.0859 32.2781 20.9802 32.532C20.8744 32.7858 20.82 33.0581 20.82 33.3332C20.82 33.6082 20.8744 33.8805 20.9802 34.1344C21.0859 34.3882 21.2409 34.6187 21.4362 34.8123C21.6299 35.0076 21.8603 35.1626 22.1142 35.2684C22.368 35.3741 22.6403 35.4286 22.9154 35.4286C23.1904 35.4286 23.4627 35.3741 23.7166 35.2684C23.9704 35.1626 24.2009 35.0076 24.3945 34.8123L32.7279 26.479C32.9175 26.2809 33.0662 26.0472 33.1654 25.7915C33.3737 25.2843 33.3737 24.7154 33.1654 24.2082C33.0662 23.9524 32.9175 23.7188 32.7279 23.5207L24.3945 15.1873C24.2003 14.9931 23.9697 14.839 23.7159 14.7339C23.4621 14.6288 23.1901 14.5746 22.9154 14.5746C22.6407 14.5746 22.3686 14.6288 22.1148 14.7339C21.861 14.839 21.6304 14.9931 21.4362 15.1873C21.242 15.3816 21.0879 15.6122 20.9827 15.866C20.8776 16.1198 20.8235 16.3918 20.8235 16.6665C20.8235 16.9412 20.8776 17.2132 20.9827 17.467C21.0879 17.7208 21.242 17.9514 21.4362 18.1457L26.2279 22.9165H10.4154C9.86283 22.9165 9.33293 23.136 8.94223 23.5267C8.55153 23.9174 8.33203 24.4473 8.33203 24.9998ZM35.4154 4.1665H14.582C12.9244 4.1665 11.3347 4.82498 10.1626 5.99709C8.99051 7.16919 8.33203 8.7589 8.33203 10.4165V16.6665C8.33203 17.219 8.55153 17.7489 8.94223 18.1396C9.33293 18.5303 9.86283 18.7498 10.4154 18.7498C10.9679 18.7498 11.4978 18.5303 11.8885 18.1396C12.2792 17.7489 12.4987 17.219 12.4987 16.6665V10.4165C12.4987 9.86397 12.7182 9.33407 13.1089 8.94337C13.4996 8.55266 14.0295 8.33317 14.582 8.33317H35.4154C35.9679 8.33317 36.4978 8.55266 36.8885 8.94337C37.2792 9.33407 37.4987 9.86397 37.4987 10.4165V39.5832C37.4987 40.1357 37.2792 40.6656 36.8885 41.0563C36.4978 41.447 35.9679 41.6665 35.4154 41.6665H14.582C14.0295 41.6665 13.4996 41.447 13.1089 41.0563C12.7182 40.6656 12.4987 40.1357 12.4987 39.5832V33.3332C12.4987 32.7806 12.2792 32.2507 11.8885 31.86C11.4978 31.4693 10.9679 31.2498 10.4154 31.2498C9.86283 31.2498 9.33293 31.4693 8.94223 31.86C8.55153 32.2507 8.33203 32.7806 8.33203 33.3332V39.5832C8.33203 41.2408 8.99051 42.8305 10.1626 44.0026C11.3347 45.1747 12.9244 45.8332 14.582 45.8332H35.4154C37.073 45.8332 38.6627 45.1747 39.8348 44.0026C41.0069 42.8305 41.6654 41.2408 41.6654 39.5832V10.4165C41.6654 8.7589 41.0069 7.16919 39.8348 5.99709C38.6627 4.82498 37.073 4.1665 35.4154 4.1665Z" fill="#595880"/>
</svg>
