<svg width="50" height="50" viewBox="0 0 50 50" fill="none" xmlns="http://www.w3.org/2000/svg">
<path d="M43.1534 16.9333L42.6409 18.1125C42.5608 18.3045 42.4257 18.4685 42.2525 18.5839C42.0794 18.6992 41.876 18.7608 41.668 18.7608C41.4599 18.7608 41.2565 18.6992 41.0834 18.5839C40.9103 18.4685 40.7751 18.3045 40.6951 18.1125L40.1826 16.9333C39.2815 14.8473 37.6313 13.1748 35.5576 12.2458L33.9763 11.5396C33.7845 11.4513 33.622 11.3099 33.508 11.1321C33.3941 10.9543 33.3336 10.7476 33.3336 10.5364C33.3336 10.3253 33.3941 10.1185 33.508 9.94075C33.622 9.76295 33.7845 9.62155 33.9763 9.53331L35.4701 8.86872C37.5959 7.91326 39.2743 6.17889 40.1596 4.02289L40.6867 2.74997C40.7641 2.55279 40.8992 2.38351 41.0742 2.26419C41.2492 2.14487 41.4561 2.08105 41.668 2.08105C41.8798 2.08105 42.0867 2.14487 42.2617 2.26419C42.4368 2.38351 42.5718 2.55279 42.6492 2.74997L43.1763 4.02081C44.0607 6.17722 45.7384 7.91233 47.8638 8.86872L49.3596 9.53539C49.5509 9.62389 49.7128 9.76527 49.8263 9.94284C49.9398 10.1204 50.0001 10.3267 50.0001 10.5375C50.0001 10.7482 49.9398 10.9545 49.8263 11.1321C49.7128 11.3097 49.5509 11.4511 49.3596 11.5396L47.7763 12.2437C45.703 13.1737 44.0535 14.8469 43.1534 16.9333ZM25.0013 4.16664C13.4951 4.16664 4.16797 13.4937 4.16797 25C4.16797 28.5479 5.05339 31.8875 6.61797 34.8104L4.16797 45.8333L15.1909 43.3833C18.209 44.9965 21.5792 45.8381 25.0013 45.8333C36.5075 45.8333 45.8346 36.5062 45.8346 25C45.8346 24.1611 45.786 23.3347 45.6888 22.5208L41.5513 23.0104C41.6291 23.6632 41.668 24.3264 41.668 25C41.668 29.4202 39.912 33.6595 36.7864 36.7851C33.6608 39.9107 29.4216 41.6666 25.0013 41.6666C22.2645 41.6713 19.5691 40.9985 17.1555 39.7083L15.7951 38.9812L9.65547 40.3458L11.0201 34.2062L10.2909 32.8458C9.00142 30.432 8.32936 27.7366 8.33464 25C8.33399 22.456 8.91572 19.9456 10.0353 17.6612C11.1548 15.3768 12.7824 13.379 14.7934 11.8209C16.8044 10.2628 19.1454 9.18567 21.637 8.67215C24.1287 8.15863 26.7048 8.22231 29.168 8.85831L30.2055 4.82289C28.5388 4.39372 26.7951 4.16664 25.0013 4.16664ZM18.7513 25H14.5846C14.5846 27.7626 15.6821 30.4122 17.6356 32.3657C19.5891 34.3192 22.2386 35.4166 25.0013 35.4166C27.764 35.4166 30.4135 34.3192 32.367 32.3657C34.3205 30.4122 35.418 27.7626 35.418 25H31.2513C31.2513 26.6576 30.5928 28.2473 29.4207 29.4194C28.2486 30.5915 26.6589 31.25 25.0013 31.25C23.3437 31.25 21.754 30.5915 20.5819 29.4194C19.4098 28.2473 18.7513 26.6576 18.7513 25Z" fill="#595880"/>
</svg>
